<svg xmlns="http://www.w3.org/2000/svg" xmlns:xlink="http://www.w3.org/1999/xlink" width="1077" zoomAndPan="magnify" viewBox="0 0 807.75 461.249995" height="615" preserveAspectRatio="xMidYMid meet" version="1.0"><defs><g/><clipPath id="e1da336812"><path d="M 283.855469 0 L 523.464844 0 L 523.464844 239.609375 L 283.855469 239.609375 Z M 283.855469 0 " clip-rule="nonzero"/></clipPath></defs><g clip-path="url(#e1da336812)"><path fill="#3f4c7f" d="M 403.523438 229.816406 C 344.40625 229.816406 296.011719 183 293.523438 124.457031 L 313.867188 124.457031 C 314.96875 147.097656 324.398438 168.304688 340.769531 184.53125 C 357.953125 201.621094 380.453125 210.953125 404.292969 210.953125 C 404.625 210.953125 404.960938 210.953125 405.25 210.953125 C 454.839844 210.429688 495.003906 169.453125 494.761719 119.382812 C 494.089844 107.65625 489.6875 77.835938 463.933594 54.425781 C 442.109375 34.558594 417.3125 30.539062 404.292969 29.867188 L 339.910156 29.867188 C 357.90625 17.089844 379.832031 9.574219 403.523438 9.574219 C 464.222656 9.523438 513.621094 58.925781 513.621094 119.671875 C 513.621094 180.414062 464.222656 229.816406 403.523438 229.816406 Z M 353.214844 124.457031 L 374.996094 124.457031 C 387.96875 126.085938 398.738281 134.269531 403.09375 145.949219 C 407.164062 156.816406 404.050781 166.726562 401.753906 171.796875 C 375.953125 170.363281 355.226562 150.019531 353.214844 124.457031 Z M 306.160156 68.308594 L 402.855469 68.355469 C 416.976562 68.117188 430.378906 73.621094 440.527344 83.675781 C 450.53125 93.582031 456.035156 106.652344 455.988281 120.4375 C 455.941406 134.652344 450.148438 147.53125 440.8125 156.863281 C 441.4375 153.324219 441.820312 149.730469 441.820312 146.046875 C 441.820312 112.921875 416.160156 86.019531 384.617188 86.019531 L 298.695312 86.019531 C 300.65625 79.84375 303.191406 73.90625 306.160156 68.308594 Z M 296.109375 95.496094 L 384.570312 95.496094 C 410.847656 95.496094 432.199219 118.140625 432.199219 146 C 432.199219 152.988281 430.859375 159.6875 428.273438 166.007812 C 423.296875 168.640625 417.835938 170.410156 412.09375 171.273438 C 414.441406 164.285156 416.160156 153.894531 411.949219 142.597656 C 406.300781 127.472656 392.46875 116.894531 375.761719 114.933594 C 375.570312 114.933594 375.378906 114.882812 375.1875 114.882812 L 293.523438 114.882812 C 293.8125 108.277344 294.671875 101.816406 296.109375 95.496094 Z M 328.226562 39.394531 L 404.003906 39.394531 C 415.539062 39.96875 437.847656 43.558594 457.472656 61.460938 C 480.640625 82.523438 484.566406 109.378906 485.1875 119.671875 C 485.378906 164.285156 449.480469 200.953125 405.105469 201.429688 C 383.660156 201.667969 363.027344 193.242188 347.46875 177.78125 C 332.917969 163.324219 324.492188 144.5625 323.441406 124.457031 L 343.691406 124.457031 C 345.75 156.097656 372.027344 181.230469 404.148438 181.46875 C 404.292969 181.46875 404.433594 181.515625 404.578125 181.515625 C 404.769531 181.515625 404.914062 181.46875 405.054688 181.46875 C 438.324219 181.179688 465.417969 153.945312 465.515625 120.484375 C 465.5625 104.113281 459.101562 88.652344 447.230469 76.925781 C 435.261719 65.050781 419.371094 58.589844 402.757812 58.828125 L 311.808594 58.78125 C 316.550781 51.699219 322.054688 45.1875 328.226562 39.394531 Z M 403.523438 0 C 372.839844 0 344.835938 11.582031 323.679688 30.636719 C 323.296875 30.921875 322.914062 31.210938 322.628906 31.59375 C 313.53125 39.96875 305.730469 49.734375 299.554688 60.554688 C 299.269531 60.9375 299.027344 61.320312 298.835938 61.796875 C 294.003906 70.460938 290.222656 79.796875 287.683594 89.65625 C 287.683594 89.703125 287.636719 89.753906 287.636719 89.800781 C 285.148438 99.375 283.855469 109.378906 283.855469 119.671875 C 283.855469 185.632812 337.515625 239.339844 403.523438 239.339844 C 469.535156 239.339844 523.195312 185.632812 523.195312 119.671875 C 523.195312 53.707031 469.488281 0 403.523438 0 " fill-opacity="1" fill-rule="nonzero"/></g><g fill="#fefbf8" fill-opacity="1"><g transform="translate(80.953076, 357.463505)"><g><path d="M 54.15625 -63.828125 C 56.132812 -62.804688 57.125 -61.175781 57.125 -58.9375 C 57.125 -57.601562 56.644531 -56.296875 55.6875 -55.015625 C 54.664062 -53.671875 53.351562 -53 51.75 -53 C 50.664062 -53 49.582031 -53.285156 48.5 -53.859375 C 45.363281 -55.328125 41.976562 -56.0625 38.34375 -56.0625 C 33.863281 -56.0625 29.960938 -55.117188 26.640625 -53.234375 C 23.316406 -51.347656 20.757812 -48.695312 18.96875 -45.28125 C 17.1875 -41.863281 16.296875 -37.953125 16.296875 -33.546875 C 16.296875 -26.003906 18.320312 -20.285156 22.375 -16.390625 C 26.4375 -12.492188 31.757812 -10.546875 38.34375 -10.546875 C 42.238281 -10.546875 45.625 -11.28125 48.5 -12.75 C 49.644531 -13.257812 50.664062 -13.515625 51.5625 -13.515625 C 53.226562 -13.515625 54.632812 -12.8125 55.78125 -11.40625 C 56.738281 -10.1875 57.21875 -8.875 57.21875 -7.46875 C 57.21875 -6.445312 56.960938 -5.519531 56.453125 -4.6875 C 55.941406 -3.863281 55.207031 -3.226562 54.25 -2.78125 C 49.257812 -0.289062 43.957031 0.953125 38.34375 0.953125 C 32.070312 0.953125 26.316406 -0.367188 21.078125 -3.015625 C 15.835938 -5.671875 11.648438 -9.582031 8.515625 -14.75 C 5.390625 -19.925781 3.828125 -26.191406 3.828125 -33.546875 C 3.828125 -40.066406 5.3125 -45.910156 8.28125 -51.078125 C 11.257812 -56.253906 15.367188 -60.296875 20.609375 -63.203125 C 25.847656 -66.109375 31.757812 -67.5625 38.34375 -67.5625 C 44.03125 -67.5625 49.300781 -66.316406 54.15625 -63.828125 Z M 54.15625 -63.828125 "/></g></g></g><g fill="#fefbf8" fill-opacity="1"><g transform="translate(141.047367, 357.463505)"><g><path d="M 59.8125 -7.46875 C 60.125 -6.644531 60.28125 -5.878906 60.28125 -5.171875 C 60.28125 -3.515625 59.738281 -2.15625 58.65625 -1.09375 C 57.570312 -0.0390625 56.328125 0.484375 54.921875 0.484375 C 53.765625 0.484375 52.722656 0.132812 51.796875 -0.5625 C 50.867188 -1.269531 50.148438 -2.234375 49.640625 -3.453125 L 44.65625 -15.046875 L 16.109375 -15.046875 L 11.125 -3.359375 C 10.675781 -2.140625 9.988281 -1.191406 9.0625 -0.515625 C 8.132812 0.148438 7.125 0.484375 6.03125 0.484375 C 4.375 0.484375 3.113281 0.0351562 2.25 -0.859375 C 1.382812 -1.753906 0.953125 -2.96875 0.953125 -4.5 C 0.953125 -5.082031 1.050781 -5.691406 1.25 -6.328125 L 25.109375 -63.640625 C 25.617188 -64.921875 26.382812 -65.910156 27.40625 -66.609375 C 28.425781 -67.316406 29.578125 -67.601562 30.859375 -67.46875 C 32.015625 -67.46875 33.085938 -67.132812 34.078125 -66.46875 C 35.066406 -65.800781 35.785156 -64.859375 36.234375 -63.640625 Z M 20.796875 -26.0625 L 39.96875 -26.0625 L 30.28125 -48.5 Z M 20.796875 -26.0625 "/></g></g><g transform="translate(202.29178, 357.463505)"><g><path d="M 34.890625 -67.09375 C 38.148438 -67.09375 41.25 -66.117188 44.1875 -64.171875 C 47.125 -62.222656 49.484375 -59.601562 51.265625 -56.3125 C 53.054688 -53.019531 53.953125 -49.425781 53.953125 -45.53125 C 53.953125 -41.695312 53.054688 -38.117188 51.265625 -34.796875 C 49.484375 -31.472656 47.125 -28.835938 44.1875 -26.890625 C 41.25 -24.941406 38.148438 -23.96875 34.890625 -23.96875 L 18.203125 -23.96875 L 18.203125 -5.84375 C 18.203125 -4.125 17.691406 -2.71875 16.671875 -1.625 C 15.648438 -0.539062 14.3125 0 12.65625 0 C 11.050781 0 9.738281 -0.554688 8.71875 -1.671875 C 7.695312 -2.796875 7.1875 -4.1875 7.1875 -5.84375 L 7.1875 -61.25 C 7.1875 -62.90625 7.742188 -64.289062 8.859375 -65.40625 C 9.984375 -66.53125 11.375 -67.09375 13.03125 -67.09375 Z M 34.890625 -34.890625 C 36.097656 -34.890625 37.289062 -35.398438 38.46875 -36.421875 C 39.65625 -37.441406 40.613281 -38.765625 41.34375 -40.390625 C 42.082031 -42.023438 42.453125 -43.738281 42.453125 -45.53125 C 42.453125 -47.3125 42.082031 -49.015625 41.34375 -50.640625 C 40.613281 -52.273438 39.65625 -53.585938 38.46875 -54.578125 C 37.289062 -55.566406 36.097656 -56.0625 34.890625 -56.0625 L 18.203125 -56.0625 L 18.203125 -34.890625 Z M 34.890625 -34.890625 "/></g></g><g transform="translate(260.085803, 357.463505)"><g><path d="M 19.171875 -5.84375 C 19.171875 -4.1875 18.5625 -2.796875 17.34375 -1.671875 C 16.132812 -0.554688 14.726562 0 13.125 0 C 11.40625 0 9.984375 -0.554688 8.859375 -1.671875 C 7.742188 -2.796875 7.1875 -4.1875 7.1875 -5.84375 L 7.1875 -61.25 C 7.1875 -62.90625 7.757812 -64.289062 8.90625 -65.40625 C 10.0625 -66.53125 11.535156 -67.09375 13.328125 -67.09375 C 14.921875 -67.09375 16.289062 -66.53125 17.4375 -65.40625 C 18.59375 -64.289062 19.171875 -62.90625 19.171875 -61.25 Z M 19.171875 -5.84375 "/></g></g></g><g fill="#fefbf8" fill-opacity="1"><g transform="translate(286.442967, 357.463505)"><g><path d="M 51.28125 -67.09375 C 53 -67.09375 54.398438 -66.582031 55.484375 -65.5625 C 56.578125 -64.539062 57.125 -63.195312 57.125 -61.53125 C 57.125 -59.875 56.578125 -58.546875 55.484375 -57.546875 C 54.398438 -56.554688 53 -56.0625 51.28125 -56.0625 L 36.234375 -56.0625 L 36.234375 -5.84375 C 36.234375 -4.1875 35.625 -2.796875 34.40625 -1.671875 C 33.195312 -0.554688 31.695312 0 29.90625 0 C 28.113281 0 26.640625 -0.554688 25.484375 -1.671875 C 24.335938 -2.796875 23.765625 -4.1875 23.765625 -5.84375 L 23.765625 -56.0625 L 8.71875 -56.0625 C 7 -56.0625 5.59375 -56.570312 4.5 -57.59375 C 3.414062 -58.625 2.875 -59.96875 2.875 -61.625 C 2.875 -63.226562 3.429688 -64.539062 4.546875 -65.5625 C 5.671875 -66.582031 7.0625 -67.09375 8.71875 -67.09375 Z M 51.28125 -67.09375 "/></g></g></g><g fill="#fefbf8" fill-opacity="1"><g transform="translate(341.649195, 357.463505)"><g><path d="M 59.8125 -7.46875 C 60.125 -6.644531 60.28125 -5.878906 60.28125 -5.171875 C 60.28125 -3.515625 59.738281 -2.15625 58.65625 -1.09375 C 57.570312 -0.0390625 56.328125 0.484375 54.921875 0.484375 C 53.765625 0.484375 52.722656 0.132812 51.796875 -0.5625 C 50.867188 -1.269531 50.148438 -2.234375 49.640625 -3.453125 L 44.65625 -15.046875 L 16.109375 -15.046875 L 11.125 -3.359375 C 10.675781 -2.140625 9.988281 -1.191406 9.0625 -0.515625 C 8.132812 0.148438 7.125 0.484375 6.03125 0.484375 C 4.375 0.484375 3.113281 0.0351562 2.25 -0.859375 C 1.382812 -1.753906 0.953125 -2.96875 0.953125 -4.5 C 0.953125 -5.082031 1.050781 -5.691406 1.25 -6.328125 L 25.109375 -63.640625 C 25.617188 -64.921875 26.382812 -65.910156 27.40625 -66.609375 C 28.425781 -67.316406 29.578125 -67.601562 30.859375 -67.46875 C 32.015625 -67.46875 33.085938 -67.132812 34.078125 -66.46875 C 35.066406 -65.800781 35.785156 -64.859375 36.234375 -63.640625 Z M 20.796875 -26.0625 L 39.96875 -26.0625 L 30.28125 -48.5 Z M 20.796875 -26.0625 "/></g></g></g><g fill="#fefbf8" fill-opacity="1"><g transform="translate(402.893602, 357.463505)"><g><path d="M 44.1875 -11.21875 C 45.84375 -11.21875 47.226562 -10.6875 48.34375 -9.625 C 49.46875 -8.570312 50.03125 -7.21875 50.03125 -5.5625 C 50.03125 -3.957031 49.46875 -2.628906 48.34375 -1.578125 C 47.226562 -0.523438 45.84375 0 44.1875 0 L 13.03125 0 C 11.375 0 9.984375 -0.554688 8.859375 -1.671875 C 7.742188 -2.796875 7.1875 -4.1875 7.1875 -5.84375 L 7.1875 -61.25 C 7.1875 -62.90625 7.757812 -64.289062 8.90625 -65.40625 C 10.0625 -66.53125 11.535156 -67.09375 13.328125 -67.09375 C 14.921875 -67.09375 16.289062 -66.53125 17.4375 -65.40625 C 18.59375 -64.289062 19.171875 -62.90625 19.171875 -61.25 L 19.171875 -11.21875 Z M 44.1875 -11.21875 "/></g></g><g transform="translate(456.758014, 357.463505)"><g/></g><g transform="translate(483.594376, 357.463505)"><g><path d="M 58.078125 -67.09375 C 59.609375 -67.09375 60.851562 -66.582031 61.8125 -65.5625 C 62.769531 -64.539062 63.25 -63.257812 63.25 -61.71875 L 63.25 -5.84375 C 63.25 -4.1875 62.691406 -2.796875 61.578125 -1.671875 C 60.460938 -0.554688 59.070312 0 57.40625 0 C 56.507812 0 55.628906 -0.140625 54.765625 -0.421875 C 53.910156 -0.710938 53.289062 -1.113281 52.90625 -1.625 L 17.734375 -46.296875 L 17.734375 -5.375 C 17.734375 -3.832031 17.238281 -2.550781 16.25 -1.53125 C 15.257812 -0.507812 13.960938 0 12.359375 0 C 10.828125 0 9.582031 -0.507812 8.625 -1.53125 C 7.664062 -2.550781 7.1875 -3.832031 7.1875 -5.375 L 7.1875 -61.25 C 7.1875 -62.90625 7.742188 -64.289062 8.859375 -65.40625 C 9.984375 -66.53125 11.375 -67.09375 13.03125 -67.09375 C 13.988281 -67.09375 14.929688 -66.898438 15.859375 -66.515625 C 16.785156 -66.128906 17.472656 -65.617188 17.921875 -64.984375 L 52.8125 -20.515625 L 52.8125 -61.71875 C 52.8125 -63.257812 53.304688 -64.539062 54.296875 -65.5625 C 55.285156 -66.582031 56.546875 -67.09375 58.078125 -67.09375 Z M 58.078125 -67.09375 "/></g></g></g><g fill="#fefbf8" fill-opacity="1"><g transform="translate(554.039842, 357.463505)"><g><path d="M 45.140625 -11.015625 C 46.804688 -11.015625 48.195312 -10.457031 49.3125 -9.34375 C 50.425781 -8.226562 50.984375 -6.9375 50.984375 -5.46875 C 50.984375 -3.863281 50.425781 -2.550781 49.3125 -1.53125 C 48.195312 -0.507812 46.804688 0 45.140625 0 L 13.03125 0 C 11.375 0 9.984375 -0.554688 8.859375 -1.671875 C 7.742188 -2.796875 7.1875 -4.1875 7.1875 -5.84375 L 7.1875 -61.25 C 7.1875 -62.90625 7.742188 -64.289062 8.859375 -65.40625 C 9.984375 -66.53125 11.375 -67.09375 13.03125 -67.09375 L 45.140625 -67.09375 C 46.804688 -67.09375 48.195312 -66.5625 49.3125 -65.5 C 50.425781 -64.445312 50.984375 -63.09375 50.984375 -61.4375 C 50.984375 -59.84375 50.441406 -58.546875 49.359375 -57.546875 C 48.273438 -56.554688 46.867188 -56.0625 45.140625 -56.0625 L 19.171875 -56.0625 L 19.171875 -39.78125 L 40.828125 -39.78125 C 42.492188 -39.78125 43.882812 -39.25 45 -38.1875 C 46.113281 -37.132812 46.671875 -35.78125 46.671875 -34.125 C 46.671875 -32.519531 46.128906 -31.222656 45.046875 -30.234375 C 43.960938 -29.242188 42.554688 -28.75 40.828125 -28.75 L 19.171875 -28.75 L 19.171875 -11.015625 Z M 45.140625 -11.015625 "/></g></g><g transform="translate(608.862696, 357.463505)"><g><path d="M 28.75 0.953125 C 24.15625 0.953125 20.066406 0.378906 16.484375 -0.765625 C 12.910156 -1.910156 9.554688 -3.859375 6.421875 -6.609375 C 4.691406 -8.140625 3.828125 -9.832031 3.828125 -11.6875 C 3.828125 -13.15625 4.367188 -14.445312 5.453125 -15.5625 C 6.546875 -16.6875 7.859375 -17.25 9.390625 -17.25 C 10.609375 -17.25 11.695312 -16.867188 12.65625 -16.109375 C 15.207031 -13.992188 17.695312 -12.457031 20.125 -11.5 C 22.550781 -10.539062 25.425781 -10.0625 28.75 -10.0625 C 32.332031 -10.0625 35.414062 -10.859375 38 -12.453125 C 40.59375 -14.054688 41.890625 -16.039062 41.890625 -18.40625 C 41.890625 -21.28125 40.609375 -23.53125 38.046875 -25.15625 C 35.492188 -26.789062 31.4375 -28.019531 25.875 -28.84375 C 11.882812 -30.894531 4.890625 -37.414062 4.890625 -48.40625 C 4.890625 -52.425781 5.941406 -55.921875 8.046875 -58.890625 C 10.160156 -61.867188 13.035156 -64.140625 16.671875 -65.703125 C 20.316406 -67.265625 24.375 -68.046875 28.84375 -68.046875 C 32.875 -68.046875 36.660156 -67.4375 40.203125 -66.21875 C 43.753906 -65.007812 46.710938 -63.414062 49.078125 -61.4375 C 50.921875 -59.96875 51.84375 -58.273438 51.84375 -56.359375 C 51.84375 -54.890625 51.300781 -53.59375 50.21875 -52.46875 C 49.132812 -51.351562 47.859375 -50.796875 46.390625 -50.796875 C 45.429688 -50.796875 44.566406 -51.082031 43.796875 -51.65625 C 42.140625 -53 39.820312 -54.226562 36.84375 -55.34375 C 33.875 -56.46875 31.207031 -57.03125 28.84375 -57.03125 C 24.820312 -57.03125 21.707031 -56.273438 19.5 -54.765625 C 17.300781 -53.265625 16.203125 -51.300781 16.203125 -48.875 C 16.203125 -46.132812 17.332031 -44.0625 19.59375 -42.65625 C 21.863281 -41.25 25.425781 -40.097656 30.28125 -39.203125 C 35.78125 -38.242188 40.175781 -37.007812 43.46875 -35.5 C 46.757812 -34 49.234375 -31.957031 50.890625 -29.375 C 52.554688 -26.789062 53.390625 -23.359375 53.390625 -19.078125 C 53.390625 -15.046875 52.253906 -11.507812 49.984375 -8.46875 C 47.710938 -5.4375 44.691406 -3.109375 40.921875 -1.484375 C 37.148438 0.140625 33.09375 0.953125 28.75 0.953125 Z M 28.75 0.953125 "/></g></g></g><g fill="#fefbf8" fill-opacity="1"><g transform="translate(666.081669, 357.463505)"><g><path d="M 51.28125 -67.09375 C 53 -67.09375 54.398438 -66.582031 55.484375 -65.5625 C 56.578125 -64.539062 57.125 -63.195312 57.125 -61.53125 C 57.125 -59.875 56.578125 -58.546875 55.484375 -57.546875 C 54.398438 -56.554688 53 -56.0625 51.28125 -56.0625 L 36.234375 -56.0625 L 36.234375 -5.84375 C 36.234375 -4.1875 35.625 -2.796875 34.40625 -1.671875 C 33.195312 -0.554688 31.695312 0 29.90625 0 C 28.113281 0 26.640625 -0.554688 25.484375 -1.671875 C 24.335938 -2.796875 23.765625 -4.1875 23.765625 -5.84375 L 23.765625 -56.0625 L 8.71875 -56.0625 C 7 -56.0625 5.59375 -56.570312 4.5 -57.59375 C 3.414062 -58.625 2.875 -59.96875 2.875 -61.625 C 2.875 -63.226562 3.429688 -64.539062 4.546875 -65.5625 C 5.671875 -66.582031 7.0625 -67.09375 8.71875 -67.09375 Z M 51.28125 -67.09375 "/></g></g></g><g fill="#fefbf8" fill-opacity="1"><g transform="translate(281.533169, 437.882774)"><g><path d="M 5.109375 0.203125 C 4.609375 0.203125 4.207031 0.0507812 3.90625 -0.25 C 3.613281 -0.5625 3.46875 -0.972656 3.46875 -1.484375 L 3.46875 -26.5625 C 3.46875 -27.039062 3.617188 -27.425781 3.921875 -27.71875 C 4.234375 -28.007812 4.644531 -28.15625 5.15625 -28.15625 L 19.6875 -28.15625 C 20.164062 -28.15625 20.535156 -28.035156 20.796875 -27.796875 C 21.066406 -27.554688 21.203125 -27.210938 21.203125 -26.765625 C 21.203125 -26.335938 21.066406 -26.003906 20.796875 -25.765625 C 20.535156 -25.523438 20.164062 -25.40625 19.6875 -25.40625 L 6.703125 -25.40625 L 6.703125 -15.703125 L 18.890625 -15.703125 C 19.367188 -15.703125 19.738281 -15.578125 20 -15.328125 C 20.269531 -15.085938 20.40625 -14.742188 20.40625 -14.296875 C 20.40625 -13.867188 20.269531 -13.535156 20 -13.296875 C 19.738281 -13.054688 19.367188 -12.9375 18.890625 -12.9375 L 6.703125 -12.9375 L 6.703125 -1.484375 C 6.703125 -0.972656 6.5625 -0.5625 6.28125 -0.25 C 6.007812 0.0507812 5.617188 0.203125 5.109375 0.203125 Z M 5.109375 0.203125 "/></g></g></g><g fill="#fefbf8" fill-opacity="1"><g transform="translate(303.37547, 437.882774)"><g><path d="M 11.0625 0.28125 C 9.226562 0.28125 7.609375 -0.128906 6.203125 -0.953125 C 4.804688 -1.785156 3.726562 -2.96875 2.96875 -4.5 C 2.21875 -6.03125 1.84375 -7.804688 1.84375 -9.828125 C 1.84375 -11.847656 2.21875 -13.625 2.96875 -15.15625 C 3.726562 -16.6875 4.804688 -17.863281 6.203125 -18.6875 C 7.609375 -19.507812 9.226562 -19.921875 11.0625 -19.921875 C 12.894531 -19.921875 14.515625 -19.507812 15.921875 -18.6875 C 17.335938 -17.863281 18.425781 -16.6875 19.1875 -15.15625 C 19.945312 -13.625 20.328125 -11.847656 20.328125 -9.828125 C 20.328125 -7.804688 19.945312 -6.03125 19.1875 -4.5 C 18.425781 -2.96875 17.335938 -1.785156 15.921875 -0.953125 C 14.515625 -0.128906 12.894531 0.28125 11.0625 0.28125 Z M 11.0625 -2.390625 C 12.976562 -2.390625 14.445312 -3.019531 15.46875 -4.28125 C 16.5 -5.550781 17.015625 -7.398438 17.015625 -9.828125 C 17.015625 -12.191406 16.492188 -14.019531 15.453125 -15.3125 C 14.410156 -16.601562 12.945312 -17.25 11.0625 -17.25 C 9.175781 -17.25 7.710938 -16.601562 6.671875 -15.3125 C 5.628906 -14.019531 5.109375 -12.191406 5.109375 -9.828125 C 5.109375 -7.429688 5.617188 -5.59375 6.640625 -4.3125 C 7.671875 -3.03125 9.144531 -2.390625 11.0625 -2.390625 Z M 11.0625 -2.390625 "/></g></g></g><g fill="#fefbf8" fill-opacity="1"><g transform="translate(325.53723, 437.882774)"><g><path d="M 12.625 -19.84375 C 13.738281 -19.925781 14.296875 -19.472656 14.296875 -18.484375 C 14.296875 -18.066406 14.175781 -17.726562 13.9375 -17.46875 C 13.695312 -17.21875 13.285156 -17.066406 12.703125 -17.015625 L 11.5 -16.890625 C 9.71875 -16.734375 8.394531 -16.101562 7.53125 -15 C 6.664062 -13.894531 6.234375 -12.597656 6.234375 -11.109375 L 6.234375 -1.390625 C 6.234375 -0.859375 6.085938 -0.457031 5.796875 -0.1875 C 5.503906 0.0703125 5.113281 0.203125 4.625 0.203125 C 4.144531 0.203125 3.753906 0.0625 3.453125 -0.21875 C 3.148438 -0.5 3 -0.890625 3 -1.390625 L 3 -18.25 C 3 -18.757812 3.15625 -19.148438 3.46875 -19.421875 C 3.789062 -19.703125 4.175781 -19.84375 4.625 -19.84375 C 5.050781 -19.84375 5.410156 -19.703125 5.703125 -19.421875 C 6.003906 -19.148438 6.15625 -18.773438 6.15625 -18.296875 L 6.15625 -16.0625 C 6.707031 -17.226562 7.492188 -18.117188 8.515625 -18.734375 C 9.546875 -19.347656 10.726562 -19.707031 12.0625 -19.8125 Z M 12.625 -19.84375 "/></g></g></g><g fill="#fefbf8" fill-opacity="1"><g transform="translate(339.233586, 437.882774)"><g><path d="M 18.046875 -4.515625 C 18.335938 -4.515625 18.585938 -4.394531 18.796875 -4.15625 C 19.015625 -3.914062 19.125 -3.609375 19.125 -3.234375 C 19.125 -2.566406 18.660156 -1.953125 17.734375 -1.390625 C 16.773438 -0.835938 15.757812 -0.421875 14.6875 -0.140625 C 13.625 0.140625 12.585938 0.28125 11.578125 0.28125 C 8.566406 0.28125 6.191406 -0.609375 4.453125 -2.390625 C 2.710938 -4.179688 1.84375 -6.644531 1.84375 -9.78125 C 1.84375 -11.78125 2.226562 -13.546875 3 -15.078125 C 3.769531 -16.609375 4.851562 -17.796875 6.25 -18.640625 C 7.644531 -19.492188 9.234375 -19.921875 11.015625 -19.921875 C 13.546875 -19.921875 15.554688 -19.09375 17.046875 -17.4375 C 18.546875 -15.789062 19.296875 -13.5625 19.296875 -10.75 C 19.296875 -10.207031 19.1875 -9.816406 18.96875 -9.578125 C 18.757812 -9.335938 18.414062 -9.21875 17.9375 -9.21875 L 5.078125 -9.21875 C 5.316406 -4.644531 7.484375 -2.359375 11.578125 -2.359375 C 12.617188 -2.359375 13.507812 -2.492188 14.25 -2.765625 C 15 -3.046875 15.800781 -3.425781 16.65625 -3.90625 C 17.34375 -4.3125 17.804688 -4.515625 18.046875 -4.515625 Z M 11.0625 -17.40625 C 9.351562 -17.40625 7.988281 -16.875 6.96875 -15.8125 C 5.945312 -14.75 5.34375 -13.242188 5.15625 -11.296875 L 16.453125 -11.296875 C 16.398438 -13.265625 15.90625 -14.773438 14.96875 -15.828125 C 14.039062 -16.878906 12.738281 -17.40625 11.0625 -17.40625 Z M 11.0625 -17.40625 "/></g></g></g><g fill="#fefbf8" fill-opacity="1"><g transform="translate(359.997754, 437.882774)"><g><path d="M 18.96875 -2.46875 C 19.289062 -2.15625 19.453125 -1.769531 19.453125 -1.3125 C 19.453125 -0.914062 19.304688 -0.570312 19.015625 -0.28125 C 18.722656 0.0078125 18.375 0.15625 17.96875 0.15625 C 17.539062 0.15625 17.15625 -0.03125 16.8125 -0.40625 L 10.34375 -7.78125 L 3.90625 -0.40625 C 3.5625 -0.03125 3.175781 0.15625 2.75 0.15625 C 2.351562 0.15625 2 0.0078125 1.6875 -0.28125 C 1.382812 -0.570312 1.234375 -0.929688 1.234375 -1.359375 C 1.234375 -1.753906 1.394531 -2.125 1.71875 -2.46875 L 8.34375 -9.9375 L 2 -17.171875 C 1.675781 -17.546875 1.515625 -17.921875 1.515625 -18.296875 C 1.515625 -18.722656 1.664062 -19.082031 1.96875 -19.375 C 2.28125 -19.664062 2.625 -19.8125 3 -19.8125 C 3.425781 -19.8125 3.8125 -19.625 4.15625 -19.25 L 10.34375 -12.140625 L 16.53125 -19.25 C 16.875 -19.625 17.257812 -19.8125 17.6875 -19.8125 C 18.09375 -19.8125 18.441406 -19.664062 18.734375 -19.375 C 19.023438 -19.082031 19.171875 -18.734375 19.171875 -18.328125 C 19.171875 -17.878906 19.007812 -17.492188 18.6875 -17.171875 L 12.34375 -9.9375 Z M 18.96875 -2.46875 "/></g></g></g><g fill="#fefbf8" fill-opacity="1"><g transform="translate(380.682058, 437.882774)"><g/></g></g><g fill="#fefbf8" fill-opacity="1"><g transform="translate(390.984283, 437.882774)"><g><path d="M 11.9375 0.203125 C 11.4375 0.203125 11.03125 0.0507812 10.71875 -0.25 C 10.414062 -0.5625 10.265625 -0.972656 10.265625 -1.484375 L 10.265625 -25.359375 L 1.671875 -25.359375 C 1.191406 -25.359375 0.816406 -25.476562 0.546875 -25.71875 C 0.285156 -25.957031 0.15625 -26.304688 0.15625 -26.765625 C 0.15625 -27.210938 0.285156 -27.554688 0.546875 -27.796875 C 0.816406 -28.035156 1.191406 -28.15625 1.671875 -28.15625 L 22.171875 -28.15625 C 22.648438 -28.15625 23.019531 -28.035156 23.28125 -27.796875 C 23.550781 -27.554688 23.6875 -27.210938 23.6875 -26.765625 C 23.6875 -26.304688 23.550781 -25.957031 23.28125 -25.71875 C 23.019531 -25.476562 22.648438 -25.359375 22.171875 -25.359375 L 13.578125 -25.359375 L 13.578125 -1.484375 C 13.578125 -0.972656 13.429688 -0.5625 13.140625 -0.25 C 12.847656 0.0507812 12.445312 0.203125 11.9375 0.203125 Z M 11.9375 0.203125 "/></g></g></g><g fill="#fefbf8" fill-opacity="1"><g transform="translate(411.828201, 437.882774)"><g><path d="M 12.625 -19.84375 C 13.738281 -19.925781 14.296875 -19.472656 14.296875 -18.484375 C 14.296875 -18.066406 14.175781 -17.726562 13.9375 -17.46875 C 13.695312 -17.21875 13.285156 -17.066406 12.703125 -17.015625 L 11.5 -16.890625 C 9.71875 -16.734375 8.394531 -16.101562 7.53125 -15 C 6.664062 -13.894531 6.234375 -12.597656 6.234375 -11.109375 L 6.234375 -1.390625 C 6.234375 -0.859375 6.085938 -0.457031 5.796875 -0.1875 C 5.503906 0.0703125 5.113281 0.203125 4.625 0.203125 C 4.144531 0.203125 3.753906 0.0625 3.453125 -0.21875 C 3.148438 -0.5 3 -0.890625 3 -1.390625 L 3 -18.25 C 3 -18.757812 3.15625 -19.148438 3.46875 -19.421875 C 3.789062 -19.703125 4.175781 -19.84375 4.625 -19.84375 C 5.050781 -19.84375 5.410156 -19.703125 5.703125 -19.421875 C 6.003906 -19.148438 6.15625 -18.773438 6.15625 -18.296875 L 6.15625 -16.0625 C 6.707031 -17.226562 7.492188 -18.117188 8.515625 -18.734375 C 9.546875 -19.347656 10.726562 -19.707031 12.0625 -19.8125 Z M 12.625 -19.84375 "/></g></g></g><g fill="#fefbf8" fill-opacity="1"><g transform="translate(425.764151, 437.882774)"><g><path d="M 10.9375 -19.921875 C 15.8125 -19.921875 18.25 -17.367188 18.25 -12.265625 L 18.25 -1.390625 C 18.25 -0.910156 18.109375 -0.523438 17.828125 -0.234375 C 17.546875 0.0546875 17.164062 0.203125 16.6875 0.203125 C 16.207031 0.203125 15.820312 0.0546875 15.53125 -0.234375 C 15.238281 -0.523438 15.09375 -0.910156 15.09375 -1.390625 L 15.09375 -3.3125 C 14.59375 -2.164062 13.820312 -1.28125 12.78125 -0.65625 C 11.738281 -0.03125 10.539062 0.28125 9.1875 0.28125 C 7.9375 0.28125 6.785156 0.03125 5.734375 -0.46875 C 4.679688 -0.976562 3.847656 -1.6875 3.234375 -2.59375 C 2.617188 -3.5 2.3125 -4.5 2.3125 -5.59375 C 2.3125 -7.050781 2.679688 -8.1875 3.421875 -9 C 4.171875 -9.8125 5.398438 -10.394531 7.109375 -10.75 C 8.816406 -11.113281 11.1875 -11.296875 14.21875 -11.296875 L 15.09375 -11.296875 L 15.09375 -12.625 C 15.09375 -14.21875 14.765625 -15.382812 14.109375 -16.125 C 13.460938 -16.875 12.40625 -17.25 10.9375 -17.25 C 9.132812 -17.25 7.300781 -16.757812 5.4375 -15.78125 C 4.71875 -15.320312 4.207031 -15.09375 3.90625 -15.09375 C 3.59375 -15.09375 3.328125 -15.210938 3.109375 -15.453125 C 2.898438 -15.691406 2.796875 -16 2.796875 -16.375 C 2.796875 -16.75 2.90625 -17.070312 3.125 -17.34375 C 3.351562 -17.625 3.722656 -17.914062 4.234375 -18.21875 C 5.160156 -18.75 6.21875 -19.164062 7.40625 -19.46875 C 8.59375 -19.769531 9.769531 -19.921875 10.9375 -19.921875 Z M 9.625 -2.28125 C 11.21875 -2.28125 12.523438 -2.816406 13.546875 -3.890625 C 14.578125 -4.972656 15.09375 -6.363281 15.09375 -8.0625 L 15.09375 -9.21875 L 14.375 -9.21875 C 12.03125 -9.21875 10.242188 -9.117188 9.015625 -8.921875 C 7.796875 -8.722656 6.925781 -8.390625 6.40625 -7.921875 C 5.882812 -7.460938 5.625 -6.78125 5.625 -5.875 C 5.625 -4.832031 6.003906 -3.972656 6.765625 -3.296875 C 7.523438 -2.617188 8.476562 -2.28125 9.625 -2.28125 Z M 9.625 -2.28125 "/></g></g></g><g fill="#fefbf8" fill-opacity="1"><g transform="translate(446.927629, 437.882774)"><g><path d="M 18.609375 -28.359375 C 19.117188 -28.359375 19.519531 -28.210938 19.8125 -27.921875 C 20.101562 -27.628906 20.25 -27.253906 20.25 -26.796875 L 20.25 -1.390625 C 20.25 -0.910156 20.101562 -0.523438 19.8125 -0.234375 C 19.519531 0.0546875 19.117188 0.203125 18.609375 0.203125 C 18.109375 0.203125 17.71875 0.0546875 17.4375 -0.234375 C 17.15625 -0.523438 17.015625 -0.910156 17.015625 -1.390625 L 17.015625 -3.546875 C 16.429688 -2.328125 15.570312 -1.382812 14.4375 -0.71875 C 13.300781 -0.0507812 11.976562 0.28125 10.46875 0.28125 C 8.757812 0.28125 7.253906 -0.144531 5.953125 -1 C 4.648438 -1.851562 3.640625 -3.046875 2.921875 -4.578125 C 2.203125 -6.109375 1.84375 -7.882812 1.84375 -9.90625 C 1.84375 -11.90625 2.203125 -13.660156 2.921875 -15.171875 C 3.640625 -16.691406 4.648438 -17.863281 5.953125 -18.6875 C 7.253906 -19.507812 8.757812 -19.921875 10.46875 -19.921875 C 11.976562 -19.921875 13.300781 -19.585938 14.4375 -18.921875 C 15.570312 -18.265625 16.429688 -17.320312 17.015625 -16.09375 L 17.015625 -26.796875 C 17.015625 -27.273438 17.15625 -27.65625 17.4375 -27.9375 C 17.71875 -28.21875 18.109375 -28.359375 18.609375 -28.359375 Z M 11.109375 -2.390625 C 12.992188 -2.390625 14.445312 -3.035156 15.46875 -4.328125 C 16.5 -5.617188 17.015625 -7.453125 17.015625 -9.828125 C 17.015625 -12.191406 16.5 -14.015625 15.46875 -15.296875 C 14.445312 -16.578125 12.992188 -17.21875 11.109375 -17.21875 C 9.210938 -17.21875 7.738281 -16.578125 6.6875 -15.296875 C 5.632812 -14.015625 5.109375 -12.21875 5.109375 -9.90625 C 5.109375 -7.53125 5.632812 -5.679688 6.6875 -4.359375 C 7.738281 -3.046875 9.210938 -2.390625 11.109375 -2.390625 Z M 11.109375 -2.390625 "/></g></g></g><g fill="#fefbf8" fill-opacity="1"><g transform="translate(470.167523, 437.882774)"><g><path d="M 4.625 0.203125 C 4.144531 0.203125 3.753906 0.0625 3.453125 -0.21875 C 3.148438 -0.5 3 -0.890625 3 -1.390625 L 3 -18.25 C 3 -18.757812 3.148438 -19.148438 3.453125 -19.421875 C 3.753906 -19.703125 4.144531 -19.84375 4.625 -19.84375 C 5.113281 -19.84375 5.503906 -19.703125 5.796875 -19.421875 C 6.085938 -19.148438 6.234375 -18.757812 6.234375 -18.25 L 6.234375 -1.390625 C 6.234375 -0.859375 6.085938 -0.457031 5.796875 -0.1875 C 5.503906 0.0703125 5.113281 0.203125 4.625 0.203125 Z M 4.640625 -24.046875 C 3.992188 -24.046875 3.472656 -24.226562 3.078125 -24.59375 C 2.679688 -24.96875 2.484375 -25.460938 2.484375 -26.078125 C 2.484375 -26.660156 2.679688 -27.140625 3.078125 -27.515625 C 3.472656 -27.890625 3.992188 -28.078125 4.640625 -28.078125 C 5.273438 -28.078125 5.789062 -27.890625 6.1875 -27.515625 C 6.59375 -27.140625 6.796875 -26.660156 6.796875 -26.078125 C 6.796875 -25.460938 6.59375 -24.96875 6.1875 -24.59375 C 5.789062 -24.226562 5.273438 -24.046875 4.640625 -24.046875 Z M 4.640625 -24.046875 "/></g></g></g><g fill="#fefbf8" fill-opacity="1"><g transform="translate(479.431534, 437.882774)"><g><path d="M 12.78125 -19.921875 C 17.4375 -19.921875 19.765625 -17.351562 19.765625 -12.21875 L 19.765625 -1.390625 C 19.765625 -0.890625 19.625 -0.5 19.34375 -0.21875 C 19.070312 0.0625 18.679688 0.203125 18.171875 0.203125 C 17.660156 0.203125 17.257812 0.0625 16.96875 -0.21875 C 16.675781 -0.5 16.53125 -0.890625 16.53125 -1.390625 L 16.53125 -12.015625 C 16.53125 -13.828125 16.175781 -15.144531 15.46875 -15.96875 C 14.769531 -16.800781 13.644531 -17.21875 12.09375 -17.21875 C 10.3125 -17.21875 8.890625 -16.671875 7.828125 -15.578125 C 6.765625 -14.484375 6.234375 -13.003906 6.234375 -11.140625 L 6.234375 -1.390625 C 6.234375 -0.890625 6.09375 -0.5 5.8125 -0.21875 C 5.53125 0.0625 5.132812 0.203125 4.625 0.203125 C 4.125 0.203125 3.726562 0.0625 3.4375 -0.21875 C 3.144531 -0.5 3 -0.890625 3 -1.390625 L 3 -18.25 C 3 -18.726562 3.144531 -19.113281 3.4375 -19.40625 C 3.726562 -19.695312 4.125 -19.84375 4.625 -19.84375 C 5.113281 -19.84375 5.492188 -19.695312 5.765625 -19.40625 C 6.046875 -19.113281 6.1875 -18.742188 6.1875 -18.296875 L 6.1875 -16.25 C 6.832031 -17.445312 7.722656 -18.359375 8.859375 -18.984375 C 10.003906 -19.609375 11.3125 -19.921875 12.78125 -19.921875 Z M 12.78125 -19.921875 "/></g></g></g><g fill="#fefbf8" fill-opacity="1"><g transform="translate(502.112389, 437.882774)"><g><path d="M 18.765625 -19.84375 C 19.273438 -19.84375 19.675781 -19.695312 19.96875 -19.40625 C 20.257812 -19.113281 20.40625 -18.726562 20.40625 -18.25 L 20.40625 -1.3125 C 20.40625 1.582031 19.660156 3.769531 18.171875 5.25 C 16.679688 6.726562 14.472656 7.46875 11.546875 7.46875 C 8.691406 7.46875 6.320312 6.910156 4.4375 5.796875 C 3.476562 5.253906 3 4.640625 3 3.953125 C 3 3.578125 3.097656 3.269531 3.296875 3.03125 C 3.492188 2.789062 3.753906 2.671875 4.078125 2.671875 C 4.335938 2.671875 4.816406 2.859375 5.515625 3.234375 C 6.441406 3.710938 7.359375 4.097656 8.265625 4.390625 C 9.171875 4.679688 10.25 4.828125 11.5 4.828125 C 13.394531 4.828125 14.820312 4.328125 15.78125 3.328125 C 16.738281 2.335938 17.21875 0.882812 17.21875 -1.03125 L 17.21875 -4.46875 C 16.65625 -3.21875 15.796875 -2.257812 14.640625 -1.59375 C 13.484375 -0.925781 12.117188 -0.59375 10.546875 -0.59375 C 8.835938 -0.59375 7.320312 -0.992188 6 -1.796875 C 4.6875 -2.597656 3.664062 -3.726562 2.9375 -5.1875 C 2.207031 -6.65625 1.84375 -8.347656 1.84375 -10.265625 C 1.84375 -12.179688 2.207031 -13.867188 2.9375 -15.328125 C 3.664062 -16.796875 4.6875 -17.925781 6 -18.71875 C 7.320312 -19.519531 8.835938 -19.921875 10.546875 -19.921875 C 12.085938 -19.921875 13.429688 -19.585938 14.578125 -18.921875 C 15.722656 -18.265625 16.585938 -17.320312 17.171875 -16.09375 L 17.171875 -18.25 C 17.171875 -18.726562 17.3125 -19.113281 17.59375 -19.40625 C 17.875 -19.695312 18.265625 -19.84375 18.765625 -19.84375 Z M 11.1875 -3.28125 C 13.050781 -3.28125 14.515625 -3.894531 15.578125 -5.125 C 16.640625 -6.363281 17.171875 -8.078125 17.171875 -10.265625 C 17.171875 -12.421875 16.644531 -14.117188 15.59375 -15.359375 C 14.539062 -16.597656 13.070312 -17.21875 11.1875 -17.21875 C 9.289062 -17.21875 7.800781 -16.597656 6.71875 -15.359375 C 5.644531 -14.117188 5.109375 -12.421875 5.109375 -10.265625 C 5.109375 -8.078125 5.644531 -6.363281 6.71875 -5.125 C 7.800781 -3.894531 9.289062 -3.28125 11.1875 -3.28125 Z M 11.1875 -3.28125 "/></g></g></g></svg>